<svg xmlns="http://www.w3.org/2000/svg" width="128" height="128" viewBox="0 0 128 128">
  <defs>
    <linearGradient id="g" x1="0" y1="0" x2="1" y2="1">
      <stop offset="0" stop-color="#a855f7"/>
      <stop offset="1" stop-color="#2563eb"/>
    </linearGradient>
    <filter id="shadow" x="-20%" y="-20%" width="140%" height="140%">
      <feDropShadow dx="0" dy="6" stdDeviation="8" flood-color="#000" flood-opacity="0.25"/>
    </filter>
  </defs>

  <!-- Rounded square background -->
  <rect x="10" y="10" width="108" height="108" rx="28" fill="url(#g)" filter="url(#shadow)"/>

  <!-- Play button (YouTube vibe) -->
  <path d="M56 46c0-3.2 3.4-5.2 6.2-3.6l28 16c2.8 1.6 2.8 5.6 0 7.2l-28 16C59.4 83.2 56 81.2 56 78V46z" fill="#fff" opacity="0.96"/>

  <!-- Sparkle accent -->
  <path d="M40 32l2.6 8.1L51 43l-8.4 2.9L40 54l-2.6-8.1L29 43l8.4-2.9L40 32z" fill="#fff" opacity="0.9"/>
  <path d="M92 78l1.8 5.6L100 85.5l-6.2 2.1L92 93l-1.8-5.4L84 85.5l6.2-1.9L92 78z" fill="#fff" opacity="0.75"/>
</svg>
